<?xml version="1.0" encoding="UTF-8" standalone="no"?>
<!-- Created with Inkscape (http://www.inkscape.org/) -->

<svg
   width="1101.7893mm"
   height="234.47696mm"
   viewBox="0 0 1101.7893 234.47696"
   version="1.1"
   id="svg1"
   xmlns="http://www.w3.org/2000/svg"
   xmlns:svg="http://www.w3.org/2000/svg">
  <defs
     id="defs1" />
  <g
     id="layer7"
     transform="translate(-2179.6375,-600.33962)">
    <path
       id="path151"
       style="display:inline;fill:#181c2a;fill-opacity:1;stroke:none;stroke-width:0.215512"
       d="m 2279.8427,600.34732 c -2.5642,0.10153 -5.5059,1.11588 -8.6384,3.13187 l -73.4729,47.28483 c -10.0239,6.45115 -18.0939,20.64022 -18.0939,31.81395 v 81.89976 c 0,5.37339 1.8791,9.02019 4.9315,10.66354 l -0.023,0.009 99.9654,58.43832 -2.4487,-96.96901 1.7462,-1.12392 c 1.2216,-0.78618 2.4015,-1.71354 3.5533,-2.70992 -1.0613,3.08958 -1.6728,6.18428 -1.6728,9.05666 v 73.35764 c 0,10.00836 7.2285,13.41388 16.2071,7.63557 l 65.8099,-42.35276 c 8.9787,-5.77834 16.2066,-18.48792 16.2066,-28.4963 v -73.35724 c 0,-10.00836 -7.2279,-13.41337 -16.2066,-7.63503 l -65.8099,42.35274 c -0.8118,0.52258 -1.6034,1.11944 -2.3828,1.74826 0.7693,-2.02 1.4157,-4.04977 1.8116,-6.04473 l 83.422,-49.05395 -99.9653,-58.4394 4e-4,0.0295 c -1.401,-0.87378 -3.0651,-1.31338 -4.946,-1.23905 z" />
    <path
       id="path152"
       style="display:inline;fill:#8ebbff;fill-opacity:1;stroke:none;stroke-width:0.215512"
       d="m 2298.0712,709.43817 c -10.0241,6.45118 -18.0939,20.64021 -18.0939,31.81398 v 81.8994 c 0,11.17375 8.0698,14.97568 18.0939,8.52451 l 73.4727,-47.28464 c 10.0242,-6.45117 18.0941,-20.64022 18.0941,-31.81397 v -81.8994 c 0,-11.17376 -8.0699,-14.97568 -18.0941,-8.52454 z m 4.4084,4.49719 64.6562,-41.61047 c 8.821,-5.67704 15.9226,-2.3313 15.9226,7.50159 v 72.07143 c 0,9.83291 -7.1016,22.31932 -15.9226,27.99633 l -64.6562,41.61046 c -8.8212,5.67704 -15.9226,2.33131 -15.9226,-7.50158 v -72.07143 c 0,-9.83291 7.1014,-22.31932 15.9226,-27.99633 z" />
    <path
       id="path153"
       style="fill:#000000;fill-opacity:0.313725;stroke:none;stroke-width:0.0639886"
       d="m 2384.0504,683.21784 -0.992,0.63827 v 13.72207 l 2.9621,-1.90623 z m 0,34.0934 -0.992,0.63879 v 13.72207 l 2.9621,-1.90623 z m 0,34.10409 -0.992,0.63827 v 10.86542 l -4.2353,3.78565 c -0.7964,1.44449 -1.7361,2.92946 -1.7361,2.92946 l 8.2749,-5.34116 0.6586,-0.42353 z" />
    <path
       id="path154"
       style="fill:#8ebbff;fill-opacity:1;stroke:none;stroke-width:0.135692"
       d="m 2380.5936,668.28085 -96.3338,61.99746 4.1775,26.41015 96.3339,-61.99747 z m 0,34.09124 -96.333,61.99639 4.1776,26.40963 96.333,-61.99639 z m -6e-4,34.09497 -96.3324,61.99641 4.1776,26.41017 96.3323,-61.99639 z" />
    <path
       id="path155"
       style="fill:#000000;fill-opacity:0.313725;stroke:none;stroke-width:0.289445px;stroke-linecap:butt;stroke-linejoin:miter;stroke-opacity:1"
       d="m 2291.1082,725.8694 -6.4983,4.18509 1.9468,14.75121 z m 0,34.0907 -6.4983,4.18457 1.9468,14.75119 z m 0,34.09767 -6.4983,4.18511 1.9468,14.75119 z" />
    <path
       id="path156"
       style="display:inline;fill:#8ebbff;fill-opacity:1;stroke:none;stroke-width:0.215512"
       d="m 2380.1825,659.02169 c -2.5642,0.10154 -5.5059,1.11577 -8.6386,3.13175 l -73.4727,47.28483 c -10.0241,6.45117 -18.0939,20.64032 -18.0939,31.81407 v 71.67094 h 6.5797 v -70.99171 c 0,-9.83289 7.1014,-22.31891 15.9226,-27.99594 l 64.6562,-41.61101 c 7.989,-5.14157 14.5481,-2.86215 15.7182,4.91459 h 6.784 v -6.56133 c 0,-7.68196 -3.8142,-11.87917 -9.4555,-11.65619 z" />
    <g
       id="text159"
       style="font-size:176.63px;line-height:1.25;font-family:Upright;-inkscape-font-specification:Upright;fill:#24293e;stroke-width:2.64942"
       aria-label="Model CC">
      <path
         style="font-weight:bold;font-family:Ubuntu;-inkscape-font-specification:'Ubuntu Bold';fill:#181c2a"
         d="m 2533.3986,662.46894 q 3.1794,5.82879 7.2419,14.48366 4.2391,8.47824 8.6548,18.54615 4.5924,9.89128 9.0082,20.31245 4.4157,10.42117 8.3016,19.60593 3.8858,-9.18476 8.3016,-19.60593 4.4157,-10.42117 8.8315,-20.31245 4.5924,-10.06791 8.6549,-18.54615 4.2391,-8.65487 7.4184,-14.48366 h 25.0815 q 1.7663,12.18747 3.1793,27.37765 1.5897,15.01355 2.6495,31.44014 1.2364,16.24996 2.1195,32.67655 1.0598,16.42659 1.7663,30.91026 h -26.8477 q -0.5299,-17.83964 -1.4131,-38.85861 -0.8831,-21.01897 -2.6494,-42.3912 -3.1794,7.41846 -7.0652,16.42659 -3.8859,9.00813 -7.7717,18.01626 -3.7093,9.00813 -7.2419,17.30974 -3.5326,8.12498 -6.0054,13.95377 h -19.2527 q -2.4728,-5.82879 -6.0054,-13.95377 -3.5326,-8.30161 -7.4184,-17.30974 -3.7093,-9.00813 -7.5951,-18.01626 -3.8859,-9.00813 -7.0652,-16.42659 -1.7663,21.37223 -2.6495,42.3912 -0.8831,21.01897 -1.413,38.85861 h -26.8478 q 0.7065,-14.48367 1.5897,-30.91026 1.0598,-16.42659 2.1195,-32.67655 1.2365,-16.42659 2.6495,-31.44014 1.5897,-15.19018 3.356,-27.37765 z m 211.0728,75.77427 q 0,10.95106 -3.1794,20.13582 -3.1793,9.00813 -9.1847,15.54344 -6.0055,6.35869 -14.4837,9.89129 -8.3016,3.5326 -18.7228,3.5326 -10.2445,0 -18.7228,-3.5326 -8.3016,-3.5326 -14.307,-9.89129 -6.0054,-6.53531 -9.3614,-15.54344 -3.3559,-9.18476 -3.3559,-20.13582 0,-10.95106 3.3559,-19.95919 3.5326,-9.00813 9.538,-15.36681 6.1821,-6.35868 14.4837,-9.89128 8.4782,-3.5326 18.3695,-3.5326 10.0679,0 18.3695,3.5326 8.4783,3.5326 14.4837,9.89128 6.0054,6.35868 9.3614,15.36681 3.356,9.00813 3.356,19.95919 z m -26.8478,0 q 0,-12.18747 -4.9456,-19.07604 -4.769,-7.0652 -13.7772,-7.0652 -9.0081,0 -13.9537,7.0652 -4.9457,6.88857 -4.9457,19.07604 0,12.18747 4.9457,19.4293 4.9456,7.0652 13.9537,7.0652 9.0082,0 13.7772,-7.0652 4.9456,-7.24183 4.9456,-19.4293 z m 69.5923,-0.52989 q 0,12.18747 5.4755,19.60593 5.4756,7.41846 16.25,7.41846 3.5326,0 6.5353,-0.17663 3.0027,-0.35326 4.9457,-0.70652 v -47.86673 q -2.4729,-1.58967 -6.5354,-2.64945 -3.8858,-1.05978 -7.9483,-1.05978 -18.7228,0 -18.7228,25.43472 z m 59.5243,44.15751 q -3.5326,1.05978 -8.125,2.11956 -4.5923,0.88315 -9.7146,1.58967 -4.9456,0.70652 -10.2445,1.05978 -5.1223,0.52989 -9.8913,0.52989 -11.481,0 -20.4891,-3.35597 -9.0081,-3.35597 -15.1902,-9.53803 -6.182,-6.35868 -9.538,-15.19018 -3.1793,-9.00813 -3.1793,-20.13582 0,-11.30432 2.826,-20.31245 2.8261,-9.18476 8.125,-15.54344 5.2989,-6.35868 12.894,-9.71465 7.7717,-3.35597 17.663,-3.35597 5.4755,0 9.7147,1.05978 4.4157,1.05978 8.8315,3.00271 v -42.03794 l 26.3178,-4.23912 z m 20.3125,-42.74447 q 0,-12.3641 3.7092,-21.54886 3.8858,-9.36139 10.0679,-15.54344 6.182,-6.18205 14.1304,-9.36139 8.125,-3.17934 16.6032,-3.17934 19.7826,0 31.2635,12.18747 11.481,12.01084 11.481,35.50263 0,2.29619 -0.1766,5.12227 -0.1767,2.64945 -0.3533,4.76901 h -59.7009 q 0.8831,8.12498 7.595,12.89399 6.712,4.76901 18.0163,4.76901 7.2418,0 14.1304,-1.23641 7.0652,-1.41304 11.481,-3.35597 l 3.5326,21.37224 q -2.1196,1.05978 -5.6522,2.11956 -3.5326,1.05978 -7.9484,1.7663 -4.2391,0.88315 -9.1847,1.41304 -4.9457,0.52989 -9.8913,0.52989 -12.5407,0 -21.9021,-3.70923 -9.1848,-3.70923 -15.3668,-10.06792 -6.0055,-6.53531 -9.0082,-15.36681 -2.826,-8.8315 -2.826,-19.07604 z m 61.8205,-10.06791 q -0.1767,-3.35597 -1.2364,-6.53531 -0.8832,-3.17934 -3.0028,-5.65216 -1.9429,-2.47282 -5.1222,-4.06249 -3.0027,-1.58967 -7.5951,-1.58967 -4.4158,0 -7.5951,1.58967 -3.1793,1.41304 -5.2989,3.88586 -2.1196,2.47282 -3.356,5.82879 -1.0598,3.17934 -1.5896,6.53531 z m 82.8394,57.58139 q -11.481,-0.17663 -18.7228,-2.47282 -7.0652,-2.29619 -11.3043,-6.35869 -4.0625,-4.23912 -5.6522,-10.06791 -1.413,-6.00542 -1.413,-13.42388 V 652.04777 l 26.3178,-4.23912 v 101.20899 q 0,3.5326 0.5299,6.35868 0.5299,2.82608 1.943,4.76901 1.5896,1.94293 4.4157,3.17934 2.8261,1.23641 7.5951,1.58967 z"
         id="path2" />
      <path
         style="font-weight:bold;font-family:Ubuntu;-inkscape-font-specification:'Ubuntu Bold';fill:#8ebbff"
         d="m 3130.4079,787.34636 q -29.8505,0 -45.5706,-16.60323 -15.5434,-16.60322 -15.5434,-47.16021 0,-15.19018 4.769,-27.02439 4.769,-12.01084 13.0706,-20.13582 8.3016,-8.30161 19.7826,-12.54073 11.4809,-4.23912 24.9048,-4.23912 7.7717,0 14.1304,1.23641 6.3587,1.05978 11.1277,2.64945 4.769,1.41304 7.9484,3.00271 3.1793,1.58967 4.5923,2.47282 l -7.9483,22.25538 q -5.6522,-3.00271 -13.2473,-5.12227 -7.4184,-2.11956 -16.9564,-2.11956 -6.3587,0 -12.5408,2.11956 -6.0054,2.11956 -10.7744,6.88857 -4.5924,4.59238 -7.4185,12.01084 -2.826,7.41846 -2.826,18.01626 0,8.47824 1.7663,15.8967 1.9429,7.24183 6.0054,12.54073 4.2391,5.2989 10.951,8.47824 6.712,3.00271 16.25,3.00271 6.0054,0 10.7744,-0.70652 4.769,-0.70652 8.4783,-1.58967 3.7092,-1.05978 6.5353,-2.29619 2.8261,-1.23641 5.1223,-2.29619 l 7.595,22.07875 q -5.8287,3.53261 -16.4265,6.35869 -10.5978,2.82608 -24.5516,2.82608 z m 110.0407,0 q -29.8505,0 -45.5705,-16.60323 -15.5435,-16.60322 -15.5435,-47.16021 0,-15.19018 4.769,-27.02439 4.769,-12.01084 13.0706,-20.13582 8.3017,-8.30161 19.7826,-12.54073 11.481,-4.23912 24.9048,-4.23912 7.7718,0 14.1304,1.23641 6.3587,1.05978 11.1277,2.64945 4.769,1.41304 7.9484,3.00271 3.1793,1.58967 4.5924,2.47282 l -7.9484,22.25538 q -5.6522,-3.00271 -13.2472,-5.12227 -7.4185,-2.11956 -16.9565,-2.11956 -6.3587,0 -12.5408,2.11956 -6.0054,2.11956 -10.7744,6.88857 -4.5924,4.59238 -7.4184,12.01084 -2.8261,7.41846 -2.8261,18.01626 0,8.47824 1.7663,15.8967 1.9429,7.24183 6.0054,12.54073 4.2391,5.2989 10.9511,8.47824 6.7119,3.00271 16.2499,3.00271 6.0054,0 10.7744,-0.70652 4.7691,-0.70652 8.4783,-1.58967 3.7092,-1.05978 6.5353,-2.29619 2.8261,-1.23641 5.1223,-2.29619 l 7.5951,22.07875 q -5.8288,3.53261 -16.4266,6.35869 -10.5978,2.82608 -24.5516,2.82608 z"
         id="path3" />
    </g>
    <ellipse
       style="fill:#8ebbff;fill-opacity:1;stroke-width:0.477522"
       id="ellipse159"
       cx="2537.8718"
       cy="-418.83237"
       rx="19.691786"
       ry="25.085155"
       transform="matrix(0.8855234,0.46459479,0,1,0,0)" />
    <ellipse
       style="fill:#181c2a;fill-opacity:1;stroke-width:0.316076"
       id="ellipse160"
       cx="2640.374"
       cy="-623.98431"
       rx="12.250032"
       ry="17.666868"
       transform="matrix(0.85050013,0.52597484,0,1,0,0)" />
    <ellipse
       style="fill:#8ebbff;fill-opacity:1;stroke-width:0.477522"
       id="ellipse161"
       cx="2495.3835"
       cy="-418.82333"
       rx="19.691786"
       ry="25.085155"
       transform="matrix(0.8855234,0.46459479,0,1,0,0)" />
    <ellipse
       style="fill:#181c2a;fill-opacity:1;stroke-width:0.316076"
       id="ellipse162"
       cx="2596.1367"
       cy="-620.17584"
       rx="12.250032"
       ry="17.666868"
       transform="matrix(0.85050013,0.52597484,0,1,0,0)" />
  </g>
</svg>
