<?xml version="1.0" encoding="UTF-8" standalone="no"?>
<!-- Created with Inkscape (http://www.inkscape.org/) -->

<svg
   width="209.99985mm"
   height="234.47736mm"
   viewBox="0 0 209.99985 234.47736"
   version="1.1"
   id="svg1"
   xmlns="http://www.w3.org/2000/svg"
   xmlns:svg="http://www.w3.org/2000/svg">
  <defs
     id="defs1">
    <filter
       style="color-interpolation-filters:sRGB"
       id="filter151"
       x="-0.11428571"
       y="-0.10235529"
       width="1.2285714"
       height="1.2900067">
      <feFlood
         result="flood"
         in="SourceGraphic"
         flood-opacity="0.200000"
         flood-color="rgb(0,0,0)"
         id="feFlood150" />
      <feGaussianBlur
         result="blur"
         in="SourceGraphic"
         stdDeviation="10.000000"
         id="feGaussianBlur150" />
      <feOffset
         result="offset"
         in="blur"
         dx="0.000000"
         dy="20.000000"
         id="feOffset150" />
      <feComposite
         result="comp1"
         operator="in"
         in="flood"
         in2="offset"
         id="feComposite150" />
      <feComposite
         result="comp2"
         operator="over"
         in="SourceGraphic"
         in2="comp1"
         id="feComposite151" />
    </filter>
  </defs>
  <g
     id="g150"
     transform="translate(-3235.5762,-54.239)"
     style="filter:url(#filter151)">
    <g
       id="g149"
       transform="translate(2041.5115,-1.2410961e-4)">
      <path
         id="path141"
         style="display:inline;fill:#181c2a;fill-opacity:1;stroke:none;stroke-width:0.487687"
         d="m 2805.6134,-2673.0235 c -5.8025,0.2299 -12.4593,2.5252 -19.5481,7.087 l -166.2633,107.002 c -22.6838,14.5986 -40.9456,46.7076 -40.9456,71.9929 v 185.3329 c 0,12.1596 4.2525,20.4121 11.1596,24.1309 l -0.038,0.021 226.2142,132.2415 -5.5409,-219.4336 3.9512,-2.5433 c 2.7644,-1.7791 5.4343,-3.8776 8.0409,-6.1324 -2.4016,6.9915 -3.7855,13.9946 -3.7855,20.4945 v 166.0029 c 0,22.6482 16.3575,30.3546 36.6754,17.2787 l 148.9228,-95.8411 c 20.3182,-13.076 36.6747,-41.8368 36.6747,-64.485 v -166.0029 c 0,-22.6481 -16.3565,-30.3532 -36.6747,-17.2776 l -148.9228,95.8412 c -1.8372,1.1826 -3.6285,2.5333 -5.3919,3.9562 1.7405,-4.5711 3.2033,-9.1643 4.099,-13.6787 l 188.778,-111.0054 -226.2143,-132.2442 v 0.065 c -3.1704,-1.9773 -6.9361,-2.9723 -11.1922,-2.8039 z"
         transform="matrix(0.4419047,0,0,0.4419047,54.455856,1235.4695)" />
      <path
         id="path142"
         style="display:inline;fill:#8ebbff;fill-opacity:1;stroke:none;stroke-width:0.487687"
         d="m 2846.8633,-2426.159 c -22.6838,14.5985 -40.9454,46.7072 -40.9454,71.9926 v 185.3322 c 0,25.2854 18.2616,33.8889 40.9454,19.2904 l 166.2633,-107.0017 c 22.684,-14.5984 40.9454,-46.7072 40.9454,-71.9926 v -185.3322 c 0,-25.2853 -18.2614,-33.889 -40.9454,-19.2904 z m 9.9758,10.1767 146.3117,-94.1614 c 19.9617,-12.8467 36.032,-5.2756 36.032,16.9756 v 163.0923 c 0,22.2511 -16.0703,50.5069 -36.032,63.3536 l -146.3117,94.1613 c -19.9617,12.8467 -36.032,5.2756 -36.032,-16.9755 v -163.0923 c 0,-22.2511 16.0703,-50.5069 36.032,-63.3536 z"
         transform="matrix(0.4419047,0,0,0.4419047,54.455856,1235.4695)" />
      <path
         id="path143"
         style="fill:#000000;fill-opacity:0.313725;stroke:none;stroke-width:0.144802"
         d="m 3041.4279,-2485.4939 -2.2451,1.4444 v 31.0521 l 6.703,-4.3136 z m 0,77.151 -2.2451,1.4455 v 31.0521 l 6.703,-4.3137 z m 0,77.175 -2.2451,1.4443 v 24.5877 l -9.5844,8.5666 c -1.8016,3.2689 -3.9285,6.6292 -3.9285,6.6292 l 18.7255,-12.0866 1.4904,-0.9585 z"
         transform="matrix(0.4419047,0,0,0.4419047,54.455856,1235.4695)" />
      <path
         id="path144"
         style="fill:#8ebbff;fill-opacity:1;stroke:none;stroke-width:0.307062"
         d="m 3033.6054,-2519.2951 -217.9966,140.2957 9.4535,59.7643 217.9967,-140.2956 z m 0,77.1461 -217.9941,140.2931 9.4536,59.763 217.9941,-140.2932 z m 0,77.1543 -217.9928,140.2933 9.4536,59.7642 217.9928,-140.2932 z"
         transform="matrix(0.4419047,0,0,0.4419047,54.455856,1235.4695)" />
      <path
         id="path145"
         style="fill:#000000;fill-opacity:0.313725;stroke:none;stroke-width:0.654996px;stroke-linecap:butt;stroke-linejoin:miter;stroke-opacity:1"
         d="m 2831.1063,-2388.9765 -14.705,9.4706 4.4056,33.3809 z m 0,77.1448 -14.705,9.4694 4.4056,33.3808 z m 0,77.1605 -14.705,9.4706 4.4056,33.3808 z"
         transform="matrix(0.4419047,0,0,0.4419047,54.455856,1235.4695)" />
      <path
         id="path146"
         style="display:inline;fill:#8ebbff;fill-opacity:1;stroke:none;stroke-width:0.487687"
         d="m 3032.6749,-2540.2478 c -5.8025,0.2297 -12.4595,2.5248 -19.5483,7.0869 l -166.2633,107.0021 c -22.6838,14.5985 -40.9454,46.7075 -40.9454,71.9929 v 162.1859 h 14.8892 v -160.6489 c 0,-22.2511 16.0703,-50.506 36.032,-63.3527 l 146.3117,-94.1627 c 18.0791,-11.6351 32.9219,-6.4766 35.5691,11.1214 h 15.3521 v -14.8479 c 0,-17.3836 -8.6312,-26.8816 -21.3971,-26.377 z"
         transform="matrix(0.4419047,0,0,0.4419047,54.455856,1235.4695)" />
      <ellipse
         style="fill:#8ebbff;fill-opacity:1;stroke-width:1.0806"
         id="ellipse146"
         cx="3085.2627"
         cy="-3744.5735"
         rx="44.561043"
         ry="56.765827"
         transform="matrix(0.39131695,0.20530661,0,0.4419047,54.455856,1235.4695)" />
      <ellipse
         style="fill:#181c2a;fill-opacity:1;stroke-width:0.715256"
         id="ellipse147"
         cx="3207.7734"
         cy="-3988.1187"
         rx="27.720909"
         ry="39.978798"
         transform="matrix(0.37583999,0.23243075,0,0.4419047,54.455856,1235.4695)" />
      <ellipse
         style="fill:#8ebbff;fill-opacity:1;stroke-width:1.0806"
         id="ellipse148"
         cx="2989.115"
         cy="-3744.5532"
         rx="44.561043"
         ry="56.765827"
         transform="matrix(0.39131695,0.20530661,0,0.4419047,54.455856,1235.4695)" />
      <ellipse
         style="fill:#181c2a;fill-opacity:1;stroke-width:0.715256"
         id="ellipse149"
         cx="3107.6663"
         cy="-3979.501"
         rx="27.720909"
         ry="39.978798"
         transform="matrix(0.37583999,0.23243075,0,0.4419047,54.455856,1235.4695)" />
    </g>
  </g>
</svg>
