<?xml version="1.0" encoding="UTF-8" standalone="no"?>
<!-- Created with Inkscape (http://www.inkscape.org/) -->

<svg
   width="245.99995mm"
   height="313.86215mm"
   viewBox="0 0 245.99995 313.86215"
   version="1.1"
   id="svg1"
   xmlns="http://www.w3.org/2000/svg"
   xmlns:svg="http://www.w3.org/2000/svg">
  <defs
     id="defs1">
    <filter
       style="color-interpolation-filters:sRGB"
       id="filter131"
       x="-0.051706085"
       y="-0.045469362"
       width="1.1034122"
       height="1.1288299">
      <feFlood
         result="flood"
         in="SourceGraphic"
         flood-opacity="0.200000"
         flood-color="rgb(0,0,0)"
         id="feFlood130" />
      <feGaussianBlur
         result="blur"
         in="SourceGraphic"
         stdDeviation="10.000000"
         id="feGaussianBlur130" />
      <feOffset
         result="offset"
         in="blur"
         dx="0.000000"
         dy="20.000000"
         id="feOffset130" />
      <feComposite
         result="comp1"
         operator="in"
         in="flood"
         in2="offset"
         id="feComposite130" />
      <feComposite
         result="comp2"
         operator="over"
         in="SourceGraphic"
         in2="comp1"
         id="feComposite131" />
    </filter>
    <filter
       style="color-interpolation-filters:sRGB"
       id="filter133"
       x="-0.096714098"
       y="-0.060327216"
       width="1.1934282"
       height="1.1709271">
      <feFlood
         result="flood"
         in="SourceGraphic"
         flood-opacity="0.200000"
         flood-color="rgb(0,0,0)"
         id="feFlood131" />
      <feGaussianBlur
         result="blur"
         in="SourceGraphic"
         stdDeviation="10.000000"
         id="feGaussianBlur131" />
      <feOffset
         result="offset"
         in="blur"
         dx="0.000000"
         dy="20.000000"
         id="feOffset131" />
      <feComposite
         result="comp1"
         operator="in"
         in="flood"
         in2="offset"
         id="feComposite132" />
      <feComposite
         result="comp2"
         operator="over"
         in="SourceGraphic"
         in2="comp1"
         id="feComposite133" />
    </filter>
  </defs>
  <g
     id="g130"
     transform="translate(-1176.065,-43.63341)">
    <g
       id="g128">
      <path
         id="path55"
         style="display:inline;fill:#181c2a;fill-opacity:1;stroke:none;stroke-width:0.487687;filter:url(#filter131)"
         d="m 2805.6134,-2673.0235 c -5.8025,0.2299 -12.4593,2.5252 -19.5481,7.087 l -166.2633,107.002 c -22.6838,14.5986 -40.9456,46.7076 -40.9456,71.9929 v 185.3329 c 0,12.1596 4.2525,20.4121 11.1596,24.1309 l -0.038,0.021 226.2142,132.2415 -5.5409,-219.4336 3.9512,-2.5433 c 2.7644,-1.7791 5.4343,-3.8776 8.0409,-6.1324 -2.4016,6.9915 -3.7855,13.9946 -3.7855,20.4945 v 166.0029 c 0,22.6482 16.3575,30.3546 36.6754,17.2787 l 148.9228,-95.8411 c 20.3182,-13.076 36.6747,-41.8368 36.6747,-64.485 v -166.0029 c 0,-22.6481 -16.3565,-30.3532 -36.6747,-17.2776 l -148.9228,95.8412 c -1.8372,1.1826 -3.6285,2.5333 -5.3919,3.9562 1.7405,-4.5711 3.2033,-9.1643 4.099,-13.6787 l 188.778,-111.0054 -226.2143,-132.2442 v 0.065 c -3.1704,-1.9773 -6.9361,-2.9723 -11.1922,-2.8039 z"
         transform="matrix(0.4419047,0,0,0.4419047,54.455856,1235.4695)" />
      <path
         id="path56"
         style="display:inline;fill:#8ebbff;fill-opacity:1;stroke:none;stroke-width:0.487687;filter:url(#filter133)"
         d="m 2846.8633,-2426.159 c -22.6838,14.5985 -40.9454,46.7072 -40.9454,71.9926 v 185.3322 c 0,25.2854 18.2616,33.8889 40.9454,19.2904 l 166.2633,-107.0017 c 22.684,-14.5984 40.9454,-46.7072 40.9454,-71.9926 v -185.3322 c 0,-25.2853 -18.2614,-33.889 -40.9454,-19.2904 z m 9.9758,10.1767 146.3117,-94.1614 c 19.9617,-12.8467 36.032,-5.2756 36.032,16.9756 v 163.0923 c 0,22.2511 -16.0703,50.5069 -36.032,63.3536 l -146.3117,94.1613 c -19.9617,12.8467 -36.032,5.2756 -36.032,-16.9755 v -163.0923 c 0,-22.2511 16.0703,-50.5069 36.032,-63.3536 z"
         transform="matrix(0.4419047,0,0,0.4419047,54.455856,1235.4695)" />
      <path
         id="path95"
         style="display:inline;fill:#000000;fill-opacity:0.313725;stroke:none;stroke-width:0.144802"
         d="m 3041.4279,-2485.4939 -2.2451,1.4444 v 31.0521 l 6.703,-4.3136 z m 0,77.151 -2.2451,1.4455 v 31.0521 l 6.703,-4.3137 z m 0,77.175 -2.2451,1.4443 v 24.5877 l -9.5844,8.5666 c -1.8016,3.2689 -3.9285,6.6292 -3.9285,6.6292 l 18.7255,-12.0866 1.4904,-0.9585 z"
         transform="matrix(0.4419047,0,0,0.4419047,54.455856,1235.4695)" />
      <path
         id="path123"
         style="fill:#8ebbff;fill-opacity:1;stroke:none;stroke-width:0.307062"
         d="m 3033.6054,-2519.2951 -217.9966,140.2957 9.4535,59.7643 217.9967,-140.2956 z m 0,77.1461 -217.9941,140.2931 9.4536,59.763 217.9941,-140.2932 z m 0,77.1543 -217.9928,140.2933 9.4536,59.7642 217.9928,-140.2932 z"
         transform="matrix(0.4419047,0,0,0.4419047,54.455856,1235.4695)" />
      <path
         id="path124"
         style="fill:#000000;fill-opacity:0.313725;stroke:none;stroke-width:0.654996px;stroke-linecap:butt;stroke-linejoin:miter;stroke-opacity:1"
         d="m 2831.1063,-2388.9765 -14.705,9.4706 4.4056,33.3809 z m 0,77.1448 -14.705,9.4694 4.4056,33.3808 z m 0,77.1605 -14.705,9.4706 4.4056,33.3808 z"
         transform="matrix(0.4419047,0,0,0.4419047,54.455856,1235.4695)" />
      <path
         id="path125"
         style="display:inline;fill:#8ebbff;fill-opacity:1;stroke:none;stroke-width:0.487687"
         d="m 3032.6749,-2540.2478 c -5.8025,0.2297 -12.4595,2.5248 -19.5483,7.0869 l -166.2633,107.0021 c -22.6838,14.5985 -40.9454,46.7075 -40.9454,71.9929 v 162.1859 h 14.8892 v -160.6489 c 0,-22.2511 16.0703,-50.506 36.032,-63.3527 l 146.3117,-94.1627 c 18.0791,-11.6351 32.9219,-6.4766 35.5691,11.1214 h 15.3521 v -14.8479 c 0,-17.3836 -8.6312,-26.8816 -21.3971,-26.377 z"
         transform="matrix(0.4419047,0,0,0.4419047,54.455856,1235.4695)" />
      <ellipse
         style="fill:#8ebbff;fill-opacity:1;stroke-width:1.0806"
         id="ellipse125"
         cx="3085.2627"
         cy="-3744.5735"
         rx="44.561043"
         ry="56.765827"
         transform="matrix(0.39131695,0.20530661,0,0.4419047,54.455856,1235.4695)" />
      <ellipse
         style="fill:#181c2a;fill-opacity:1;stroke-width:0.715256"
         id="ellipse126"
         cx="3207.7734"
         cy="-3988.1187"
         rx="27.720909"
         ry="39.978798"
         transform="matrix(0.37583999,0.23243075,0,0.4419047,54.455856,1235.4695)" />
      <ellipse
         style="fill:#8ebbff;fill-opacity:1;stroke-width:1.0806"
         id="ellipse127"
         cx="2989.115"
         cy="-3744.5532"
         rx="44.561043"
         ry="56.765827"
         transform="matrix(0.39131695,0.20530661,0,0.4419047,54.455856,1235.4695)" />
      <ellipse
         style="fill:#181c2a;fill-opacity:1;stroke-width:0.715256"
         id="ellipse128"
         cx="3107.6663"
         cy="-3979.501"
         rx="27.720909"
         ry="39.978798"
         transform="matrix(0.37583999,0.23243075,0,0.4419047,54.455856,1235.4695)" />
    </g>
    <g
       id="g129"
       style="font-size:170.466px;line-height:1.25;font-family:Upright;-inkscape-font-specification:Upright;fill:#24293e;stroke-width:2.55696"
       aria-label="Model CC"
       transform="matrix(0.32509637,0,0,0.32509637,820.48366,647.49381)">
      <path
         style="font-weight:bold;font-family:Ubuntu;-inkscape-font-specification:'Ubuntu Bold';fill:#181c2a;fill-opacity:1"
         d="m 1128.5472,-1012.5573 q 3.0684,5.6254 6.9891,13.97826 4.0912,8.18236 8.3529,17.89893 4.4321,9.54609 8.6937,19.60359 4.2617,10.05749 8.0119,18.92172 3.7503,-8.86423 8.0119,-18.92172 4.2617,-10.0575 8.5233,-19.60359 4.4321,-9.71657 8.3529,-17.89893 4.0911,-8.35286 7.1595,-13.97826 h 24.2062 q 1.7047,11.7622 3.0684,26.42227 1.5342,14.48961 2.557,30.34295 1.1932,15.68287 2.0456,31.53621 1.0228,15.85334 1.7046,29.83155 h -25.9108 q -0.5114,-17.21706 -1.3637,-37.50252 -0.8524,-20.28545 -2.557,-40.91184 -3.0684,7.15957 -6.8187,15.85334 -3.7502,8.69377 -7.5005,17.38753 -3.5797,8.69377 -6.9891,16.70567 -3.4093,7.84144 -5.7958,13.46682 h -18.5808 q -2.3865,-5.62538 -5.7958,-13.46682 -3.4094,-8.0119 -7.1596,-16.70567 -3.5798,-8.69376 -7.3301,-17.38753 -3.7502,-8.69377 -6.8186,-15.85334 -1.7047,20.62639 -2.557,40.91184 -0.8523,20.28546 -1.3637,37.50252 h -25.9109 q 0.6819,-13.97821 1.5342,-29.83155 1.0228,-15.85334 2.0456,-31.53621 1.1933,-15.85334 2.557,-30.34295 1.5342,-14.66007 3.2389,-26.42227 z m 203.7068,73.12996 q 0,10.56889 -3.0684,19.43312 -3.0684,8.69377 -8.8642,15.00101 -5.7959,6.13678 -13.9783,9.5461 -8.0119,3.40932 -18.0693,3.40932 -9.8871,0 -18.0694,-3.40932 -8.0119,-3.40932 -13.8078,-9.5461 -5.7958,-6.30724 -9.0347,-15.00101 -3.2388,-8.86423 -3.2388,-19.43312 0,-10.56889 3.2388,-19.26266 3.4093,-8.69377 9.2052,-14.83054 5.9663,-6.13678 13.9782,-9.5461 8.1824,-3.40932 17.7285,-3.40932 9.7165,0 17.7284,3.40932 8.1824,3.40932 13.9782,9.5461 5.7959,6.13677 9.0347,14.83054 3.2389,8.69377 3.2389,19.26266 z m -25.9109,0 q 0,-11.76216 -4.773,-18.41033 -4.6026,-6.81864 -13.2963,-6.81864 -8.6938,0 -13.4669,6.81864 -4.773,6.64817 -4.773,18.41033 0,11.76215 4.773,18.75126 4.7731,6.81864 13.4669,6.81864 8.6937,0 13.2963,-6.81864 4.773,-6.98911 4.773,-18.75126 z m 67.1637,-0.5114 q 0,11.76215 5.2845,18.92173 5.2844,7.15957 15.6828,7.15957 3.4094,0 6.3073,-0.17047 2.8979,-0.34093 4.773,-0.68186 v -46.19629 q -2.3865,-1.53419 -6.3072,-2.55699 -3.7503,-1.02279 -7.671,-1.02279 -18.0694,0 -18.0694,24.5471 z m 57.4471,42.6165 q -3.4094,1.0228 -7.8415,2.04559 -4.4321,0.85233 -9.3756,1.5342 -4.7731,0.68186 -9.887,1.02279 -4.9435,0.5114 -9.5461,0.5114 -11.0803,0 -19.7741,-3.23885 -8.6937,-3.23886 -14.6601,-9.20517 -5.9663,-6.13677 -9.2051,-14.66007 -3.0684,-8.69377 -3.0684,-19.43313 0,-10.90982 2.7274,-19.60359 2.7275,-8.86423 7.8415,-15.00101 5.114,-6.13677 12.444,-9.37563 7.5005,-3.23885 17.0466,-3.23885 5.2844,0 9.3756,1.0228 4.2617,1.02279 8.5233,2.89792 v -40.57096 l 25.3995,-4.0911 z m 19.6035,-41.25277 q 0,-11.93262 3.5798,-20.79685 3.7503,-9.0347 9.7166,-15.00101 5.9663,-5.96631 13.6373,-9.0347 7.8414,-3.06839 16.0238,-3.06839 19.0922,0 30.1725,11.76216 11.0803,11.59168 11.0803,34.26366 0,2.21606 -0.1705,4.94352 -0.1705,2.55699 -0.3409,4.60258 h -57.6176 q 0.8524,7.84144 7.3301,12.44402 6.4777,4.60258 17.3875,4.60258 6.9891,0 13.6373,-1.19326 6.8186,-1.36373 11.0803,-3.23886 l 3.4093,20.62639 q -2.0456,1.0228 -5.4549,2.04559 -3.4093,1.0228 -7.671,1.70466 -4.0912,0.85233 -8.8642,1.36373 -4.7731,0.5114 -9.5461,0.5114 -12.1031,0 -21.1378,-3.57979 -8.8642,-3.57978 -14.8305,-9.71656 -5.7959,-6.30724 -8.6938,-14.83054 -2.7275,-8.5233 -2.7275,-18.41033 z m 59.6631,-9.71656 q -0.1704,-3.23886 -1.1932,-6.30725 -0.8523,-3.06838 -2.8979,-5.45491 -1.8752,-2.38652 -4.9436,-3.92072 -2.8979,-1.53419 -7.33,-1.53419 -4.2616,0 -7.33,1.53419 -3.0684,1.36373 -5.114,3.75026 -2.0456,2.38652 -3.2389,5.62537 -1.0228,3.06839 -1.5342,6.30725 z m 79.9485,55.57191 q -11.0802,-0.17046 -18.0693,-2.38652 -6.8187,-2.21606 -10.9099,-6.13678 -3.9207,-4.09118 -5.4549,-9.71656 -1.3637,-5.79584 -1.3637,-12.95541 v -98.69987 l 25.3994,-4.0911 v 97.67698 q 0,3.40932 0.5114,6.13678 0.5114,2.72746 1.8751,4.60258 1.5342,1.87513 4.2617,3.06839 2.7275,1.19326 7.33,1.5342 z"
         id="path128" />
      <path
         style="font-weight:bold;font-family:Ubuntu;-inkscape-font-specification:'Ubuntu Bold';fill:#8ebbff"
         d="m 1704.7222,-892.03779 q -28.8088,0 -43.9802,-16.02381 -15.001,-16.0238 -15.001,-45.51442 0,-14.66008 4.6025,-26.0813 4.6026,-11.59169 12.6145,-19.43312 8.0119,-8.01186 19.0922,-12.10306 11.0803,-4.0912 24.0357,-4.0912 7.5005,0 13.6373,1.1932 6.1368,1.0228 10.7394,2.557 4.6025,1.3638 7.6709,2.898 3.0684,1.5342 4.4321,2.3865 l -7.6709,21.4787 q -5.4549,-2.89792 -12.785,-4.94351 -7.1596,-2.04559 -16.3647,-2.04559 -6.1368,0 -12.1031,2.04559 -5.7958,2.04559 -10.3984,6.64817 -4.4321,4.43212 -7.1596,11.59169 -2.7275,7.15957 -2.7275,17.38753 0,8.18237 1.7047,15.34194 1.8751,6.98911 5.7958,12.10309 4.0912,5.11398 10.5689,8.18237 6.4777,2.89792 15.6829,2.89792 5.7959,0 10.3984,-0.68186 4.6026,-0.68187 8.1824,-1.5342 3.5798,-1.02279 6.3072,-2.21606 2.7275,-1.19326 4.9436,-2.21605 l 7.33,21.30825 q -5.6254,3.40932 -15.8533,6.13677 -10.228,2.72746 -23.6948,2.72746 z m 106.2005,0 q -28.8088,0 -43.9802,-16.02381 -15.001,-16.0238 -15.001,-45.51442 0,-14.66008 4.6025,-26.0813 4.6026,-11.59169 12.6145,-19.43312 8.0119,-8.01186 19.0922,-12.10306 11.0803,-4.0912 24.0357,-4.0912 7.5005,0 13.6373,1.1932 6.1368,1.0228 10.7394,2.557 4.6025,1.3638 7.6709,2.898 3.0684,1.5342 4.4321,2.3865 l -7.6709,21.4787 q -5.4549,-2.89792 -12.785,-4.94351 -7.1596,-2.04559 -16.3647,-2.04559 -6.1368,0 -12.1031,2.04559 -5.7958,2.04559 -10.3984,6.64817 -4.4321,4.43212 -7.1596,11.59169 -2.7275,7.15957 -2.7275,17.38753 0,8.18237 1.7047,15.34194 1.8751,6.98911 5.7958,12.10309 4.0912,5.11398 10.5689,8.18237 6.4777,2.89792 15.6829,2.89792 5.7959,0 10.3984,-0.68186 4.6026,-0.68187 8.1824,-1.5342 3.5798,-1.02279 6.3072,-2.21606 2.7275,-1.19326 4.9436,-2.21605 l 7.33,21.30825 q -5.6254,3.40932 -15.8533,6.13677 -10.228,2.72746 -23.6948,2.72746 z"
         id="path129" />
    </g>
  </g>
</svg>
